<?xml version="1.0" standalone="no"?>
<!DOCTYPE svg PUBLIC "-//W3C//DTD SVG 20010904//EN"
 "http://www.w3.org/TR/2001/REC-SVG-20010904/DTD/svg10.dtd">
<svg version="1.0" xmlns="http://www.w3.org/2000/svg"
 width="512.000000pt" height="512.000000pt" viewBox="0 0 512.000000 512.000000"
 preserveAspectRatio="xMidYMid meet">
<metadata>
Created by potrace 1.11, written by Peter Selinger 2001-2013
</metadata>
<g transform="translate(0.000000,512.000000) scale(0.100000,-0.100000)"
fill="#000000" stroke="none">
<path d="M0 2560 l0 -2560 2560 0 2560 0 0 2560 0 2560 -2560 0 -2560 0 0
-2560z m3461 800 c10 -6 19 -19 19 -30 0 -15 -8 -19 -42 -22 -42 -3 -43 -4
-46 -40 -3 -36 -2 -38 27 -38 26 0 31 -4 31 -25 0 -21 -5 -25 -30 -25 l-30 0
0 -130 0 -130 -35 0 -34 0 -3 128 c-3 123 -4 127 -25 130 -17 2 -23 10 -23 27
0 17 6 25 23 27 18 2 23 11 28 45 3 23 11 49 19 58 27 33 84 44 121 25z
m-1751 -76 c0 -69 2 -75 18 -69 51 22 99 27 128 14 45 -22 54 -51 54 -186 l0
-123 -40 0 -40 0 0 125 c0 122 0 125 -23 131 -13 3 -39 1 -58 -3 l-34 -9 -3
-122 -3 -122 -34 0 -35 0 0 220 0 220 35 0 35 0 0 -76z m1525 31 c0 -28 -3
-30 -35 -30 -26 0 -36 5 -38 18 -7 34 6 48 40 45 29 -3 33 -6 33 -33z m330 0
c0 -28 -3 -30 -35 -30 -26 0 -36 5 -38 18 -7 34 6 48 40 45 29 -3 33 -6 33
-33z m-2914 15 c30 -6 65 -18 79 -28 89 -64 94 -262 9 -338 -37 -33 -84 -44
-180 -44 l-89 0 0 210 0 210 64 0 c35 0 88 -5 117 -10z m1708 -1 c25 -9 31
-16 31 -41 0 -23 -4 -29 -16 -24 -71 27 -155 12 -178 -32 -37 -74 -31 -179 14
-224 24 -23 37 -28 79 -28 27 0 61 4 75 10 24 9 26 8 26 -20 0 -38 -27 -50
-112 -50 -75 0 -127 27 -158 81 -42 75 -35 214 13 275 42 55 149 80 226 53z
m-837 -61 c3 -30 6 -33 41 -36 31 -3 37 -7 37 -27 0 -20 -6 -24 -37 -27 l-38
-3 -3 -75 c-4 -107 1 -120 44 -120 33 0 35 -2 32 -27 -3 -26 -7 -28 -49 -31
-34 -2 -52 2 -70 17 -22 18 -24 27 -27 130 -3 101 -5 111 -23 111 -14 0 -19 7
-19 25 0 18 5 25 20 25 16 0 20 7 20 35 0 33 2 35 34 35 32 0 35 -3 38 -32z
m1518 -3 c0 -34 1 -35 40 -35 36 0 40 -2 40 -25 0 -23 -4 -25 -40 -25 l-41 0
3 -97 3 -98 38 -3 c31 -3 37 -7 37 -27 0 -43 -86 -50 -125 -10 -23 23 -25 31
-25 130 0 98 -1 105 -20 105 -15 0 -20 7 -20 25 0 18 5 25 20 25 16 0 20 7 20
35 0 33 2 35 35 35 33 0 35 -2 35 -35z m1230 0 c0 -33 2 -35 35 -35 31 0 35
-3 35 -25 0 -22 -4 -25 -35 -25 l-35 0 0 -100 0 -100 36 0 c33 0 35 -2 32 -27
-3 -25 -7 -28 -48 -31 -76 -5 -84 8 -90 140 -5 108 -6 113 -27 116 -17 2 -23
10 -23 27 0 17 6 25 23 27 17 2 23 11 25 36 3 29 6 32 38 32 32 0 34 -2 34
-35z m-3235 -39 c39 -17 60 -52 70 -119 l7 -47 -101 0 c-99 0 -101 0 -101 -23
0 -53 70 -76 158 -53 31 7 33 6 30 -15 -4 -33 -42 -49 -116 -49 -56 0 -66 3
-98 33 -55 50 -67 142 -28 218 30 59 110 83 179 55z m315 -21 c24 -25 25 -30
25 -153 0 -125 0 -127 -23 -130 -13 -2 -29 1 -35 7 -8 6 -18 6 -27 1 -24 -15
-103 -12 -127 5 -31 22 -40 78 -18 111 20 31 71 54 120 54 32 0 35 2 35 30 0
39 -29 54 -92 47 -49 -6 -49 -6 -46 21 4 32 37 43 113 37 36 -3 56 -11 75 -30z
m1275 21 c39 -17 60 -52 70 -119 l7 -47 -101 0 c-99 0 -101 0 -101 -23 0 -53
70 -76 158 -53 31 7 33 6 30 -15 -4 -33 -42 -49 -116 -49 -56 0 -66 3 -98 33
-55 50 -67 142 -28 218 30 59 110 83 179 55z m285 -27 c0 -26 -3 -29 -31 -29
-65 0 -69 -8 -69 -135 l0 -115 -35 0 -35 0 0 155 0 155 35 0 c26 0 35 -4 35
-16 0 -13 3 -14 14 -5 18 15 68 30 79 24 4 -2 7 -17 7 -34z m909 30 c24 -9 31
-17 31 -38 l0 -28 -49 11 c-41 8 -53 7 -75 -8 -15 -9 -32 -29 -37 -44 -14 -37
-2 -106 22 -128 21 -19 78 -25 117 -11 19 7 22 5 22 -17 0 -33 -26 -46 -93
-46 -95 0 -145 54 -146 155 -1 65 31 122 81 145 49 22 82 25 127 9z m246 -4
c47 -19 55 -45 55 -186 l0 -119 -29 0 c-16 0 -31 5 -33 11 -3 9 -9 9 -25 0
-27 -14 -98 -15 -123 -1 -26 14 -43 71 -31 103 14 36 47 55 111 65 52 7 55 9
53 36 -1 16 -5 31 -8 35 -4 3 -36 6 -71 6 -60 0 -64 1 -64 22 0 39 100 56 165
28z m521 -10 c31 -20 54 -71 54 -120 l0 -35 -100 0 c-57 0 -100 -4 -100 -10 0
-5 5 -20 11 -34 20 -42 96 -56 165 -29 10 3 14 -2 14 -19 0 -33 -35 -48 -108
-48 -107 0 -158 59 -150 172 5 67 27 104 79 131 40 21 96 18 135 -8z m-1346
-140 l0 -155 -40 0 -40 0 0 155 0 155 40 0 40 0 0 -155z m330 0 l0 -155 -40 0
-40 0 0 155 0 155 40 0 40 0 0 -155z m-1308 -952 l3 -138 50 72 c47 68 52 72
89 73 l38 0 -26 -35 c-14 -19 -37 -50 -51 -68 -14 -19 -25 -37 -25 -41 0 -4
25 -42 56 -86 l56 -80 -40 0 c-39 0 -42 2 -96 82 l-56 82 0 -82 0 -82 -35 0
-35 0 0 220 0 220 35 0 34 0 3 -137z m1458 -83 l0 -220 -29 0 c-16 0 -31 5
-33 11 -3 9 -9 9 -25 0 -31 -16 -101 -14 -133 5 -78 47 -81 212 -5 272 35 27
86 37 125 24 l30 -11 0 70 0 69 35 0 35 0 0 -220z m-1860 175 c0 -33 -2 -35
-35 -35 -33 0 -35 2 -35 35 0 33 2 35 35 35 33 0 35 -2 35 -35z m1530 0 c0
-33 -2 -35 -35 -35 -32 0 -35 3 -35 28 0 36 6 42 42 42 25 0 28 -3 28 -35z
m-2089 15 c73 -20 119 -99 119 -202 0 -79 -27 -140 -71 -167 -36 -22 -33 -25
36 -39 36 -8 40 -11 38 -36 -1 -16 -4 -30 -6 -32 -8 -8 -270 74 -295 93 -85
61 -98 253 -24 337 42 47 128 67 203 46z m1592 -1 c32 -9 37 -14 37 -41 0 -27
-3 -30 -22 -24 -90 26 -167 12 -196 -34 -34 -54 -26 -187 13 -226 20 -20 34
-24 85 -24 l60 0 0 50 0 50 -40 0 c-36 0 -40 3 -40 25 0 25 1 25 80 25 l80 0
0 -95 0 -94 -37 -10 c-63 -18 -162 -13 -208 9 -64 31 -90 85 -90 185 0 116 39
180 124 205 38 12 110 11 154 -1z m-757 -110 c8 -6 14 -20 14 -31 0 -18 -4
-20 -46 -13 -81 12 -124 -22 -124 -100 0 -88 62 -125 153 -90 27 11 23 -41 -4
-56 -34 -18 -143 -7 -170 16 -64 58 -65 201 -1 258 11 10 33 22 48 27 35 11
112 4 130 -11z m1850 -4 c31 -20 54 -71 54 -120 l0 -35 -100 0 c-57 0 -100 -4
-100 -10 0 -5 5 -20 11 -34 20 -42 96 -56 165 -29 10 3 14 -2 14 -19 0 -33
-35 -48 -108 -48 -107 0 -158 59 -150 172 5 67 27 104 79 131 40 21 96 18 135
-8z m-2444 -107 l3 -123 34 -3 c19 -2 44 -1 57 2 24 6 24 9 24 126 l0 120 35
0 35 0 0 -155 0 -155 -30 0 c-17 0 -33 6 -36 14 -5 12 -9 12 -32 0 -42 -22
-111 -18 -139 8 -22 20 -23 28 -23 155 l0 133 35 0 34 0 3 -122z m318 -33 l0
-155 -35 0 -35 0 0 155 0 155 35 0 35 0 0 -155z m1212 33 l3 -123 34 -3 c19
-2 44 -1 57 2 24 6 24 9 24 126 l0 120 35 0 35 0 0 -155 0 -155 -30 0 c-17 0
-33 6 -36 14 -5 12 -9 12 -32 0 -42 -22 -111 -18 -139 8 -22 20 -23 28 -23
155 l0 133 35 0 34 0 3 -122z m318 -33 l0 -155 -35 0 -35 0 0 155 0 155 35 0
35 0 0 -155z"/>
<path d="M548 3274 c-5 -4 -8 -72 -8 -151 l0 -143 50 0 c97 0 130 38 130 151
0 70 -11 103 -42 123 -26 17 -119 32 -130 20z"/>
<path d="M927 3162 c-34 -38 -22 -52 43 -52 56 0 60 2 60 23 0 13 -5 28 -12
35 -18 18 -73 14 -91 -6z"/>
<path d="M1253 3053 c-40 -5 -57 -25 -49 -58 6 -24 11 -26 49 -23 42 3 42 3
45 46 2 23 0 41 -5 40 -4 0 -22 -3 -40 -5z"/>
<path d="M2517 3162 c-34 -38 -22 -52 43 -52 56 0 60 2 60 23 0 13 -5 28 -12
35 -18 18 -73 14 -91 -6z"/>
<path d="M3992 3053 c-65 -8 -66 -83 -2 -83 49 0 60 9 60 51 0 25 -4 38 -12
37 -7 0 -28 -3 -46 -5z"/>
<path d="M4462 3168 c-5 -7 -13 -23 -16 -35 -7 -22 -5 -23 58 -23 71 0 79 7
50 48 -17 25 -74 31 -92 10z"/>
<path d="M3535 2060 c-23 -26 -31 -115 -13 -150 17 -30 63 -45 101 -31 27 10
27 12 27 100 0 98 -2 101 -64 101 -20 0 -40 -8 -51 -20z"/>
<path d="M1181 2166 c-13 -7 -30 -24 -37 -37 -18 -32 -18 -161 0 -203 27 -65
125 -73 170 -13 28 38 35 160 12 209 -26 54 -91 74 -145 44z"/>
<path d="M3862 2068 c-5 -7 -13 -23 -16 -35 -7 -22 -5 -23 58 -23 71 0 79 7
50 48 -17 25 -74 31 -92 10z"/>
</g>
</svg>
