<?xml version="1.0" standalone="no"?>
<!DOCTYPE svg PUBLIC "-//W3C//DTD SVG 20010904//EN"
 "http://www.w3.org/TR/2001/REC-SVG-20010904/DTD/svg10.dtd">
<svg version="1.0" xmlns="http://www.w3.org/2000/svg"
 width="512.000000pt" height="512.000000pt" viewBox="0 0 512.000000 512.000000"
 preserveAspectRatio="xMidYMid meet">
<metadata>
Created by potrace 1.11, written by Peter Selinger 2001-2013
</metadata>
<g transform="translate(0.000000,512.000000) scale(0.100000,-0.100000)"
fill="#000000" stroke="none">
<path d="M0 2560 l0 -2560 2560 0 2560 0 0 2560 0 2560 -2560 0 -2560 0 0
-2560z m1718 652 c3 -65 5 -73 20 -67 9 4 40 10 68 12 43 4 55 2 73 -16 19
-19 21 -32 21 -156 l0 -135 -25 0 -25 0 0 114 c0 63 -3 121 -6 130 -6 17 -58
21 -101 10 -21 -6 -23 -12 -25 -128 l-3 -121 -25 0 -25 0 -3 205 c-1 112 0
211 3 218 3 7 15 12 27 10 21 -3 23 -9 26 -76z m1770 50 c3 -22 1 -23 -27 -17
-39 8 -74 -23 -69 -63 2 -23 8 -27 33 -27 23 -1 31 -6 33 -23 3 -19 -1 -22
-32 -22 l-36 0 0 -130 0 -130 -25 0 -25 0 0 130 c0 123 -1 130 -20 130 -14 0
-20 7 -20 24 0 17 5 23 17 22 12 -1 19 7 21 24 10 87 33 112 100 108 41 -3 47
-6 50 -26z m-1115 -3 c30 -8 37 -14 37 -36 0 -20 -4 -24 -17 -18 -44 16 -110
17 -141 1 -52 -27 -67 -59 -66 -145 1 -89 19 -132 64 -151 30 -13 118 -10 153
5 16 6 18 4 15 -16 -4 -32 -42 -49 -111 -49 -122 0 -180 65 -181 205 -1 89 19
143 66 178 45 33 117 44 181 26z m867 -19 c0 -25 -4 -30 -25 -30 -21 0 -25 5
-25 30 0 25 4 30 25 30 21 0 25 -5 25 -30z m330 -1 c0 -27 -3 -30 -27 -27 -21
2 -27 8 -26 26 1 32 1 32 28 32 21 0 25 -5 25 -31z m-2871 11 c77 -22 114 -84
115 -191 0 -61 -5 -83 -25 -119 -35 -64 -80 -83 -193 -84 l-91 -1 -3 203 -2
202 82 0 c46 0 98 -4 117 -10z m831 -61 c4 -31 8 -35 35 -35 23 0 31 -5 33
-22 3 -19 -1 -22 -32 -22 l-36 0 0 -105 0 -105 40 0 c33 0 40 -4 40 -19 0 -39
-79 -43 -115 -6 -23 23 -25 31 -25 130 0 100 -1 105 -21 105 -15 0 -20 5 -17
23 2 15 9 21 21 19 13 -2 17 4 17 31 0 40 7 49 35 45 15 -2 21 -12 25 -39z
m1522 4 c3 -36 5 -38 38 -39 28 0 36 -4 38 -22 3 -20 -1 -22 -38 -22 l-41 0 3
-102 3 -103 38 -3 c28 -2 37 -8 37 -22 0 -35 -78 -42 -110 -10 -18 18 -20 33
-20 130 l0 110 -26 0 c-21 0 -25 4 -22 23 2 14 10 22 23 22 16 0 21 8 23 38 3
31 7 37 27 37 20 0 24 -6 27 -37z m1212 -3 c1 -33 3 -35 36 -36 28 0 36 -5 38
-21 3 -19 -2 -22 -35 -25 l-38 -3 -3 -70 c-2 -38 0 -85 3 -102 5 -31 9 -33 45
-33 26 0 40 -5 40 -13 0 -43 -77 -51 -115 -12 -23 23 -25 31 -25 130 0 100 -1
105 -21 105 -15 0 -20 5 -17 23 2 12 10 22 18 22 10 0 16 12 18 38 3 35 6 38
30 35 22 -3 26 -8 26 -38z m-3205 -44 c32 -17 49 -51 58 -112 l6 -44 -102 0
c-92 0 -101 -2 -101 -19 0 -10 9 -30 21 -45 17 -22 28 -26 69 -26 27 0 61 5
75 10 24 9 26 8 23 -12 -4 -30 -42 -48 -101 -48 -99 0 -142 47 -142 155 0 77
17 115 64 140 34 18 95 19 130 1z m280 -1 c16 -8 31 -22 35 -30 3 -9 6 -73 6
-141 0 -113 -2 -124 -18 -124 -10 0 -23 5 -29 11 -8 8 -17 8 -31 0 -33 -18
-87 -13 -116 10 -20 16 -26 29 -26 60 0 57 31 85 104 94 63 8 72 18 57 58 -10
25 -14 27 -76 27 -58 0 -65 2 -65 19 0 11 8 22 18 24 38 10 115 6 141 -8z
m1319 -1 c32 -22 52 -66 52 -114 l0 -40 -101 0 c-88 0 -100 -2 -95 -16 3 -9 6
-20 6 -25 0 -5 9 -18 20 -29 22 -22 106 -28 141 -10 16 9 19 7 19 -14 0 -19
-8 -27 -36 -36 -59 -20 -131 -8 -165 26 -70 70 -48 230 36 264 33 14 99 11
123 -6z m161 -3 c6 -9 14 -8 37 4 48 25 76 19 67 -14 -3 -13 -18 -21 -43 -25
-57 -9 -61 -20 -59 -143 l2 -108 -27 -3 -26 -3 0 149 c0 82 3 151 6 154 9 9
35 3 43 -11z m421 -138 l0 -153 -25 0 -25 0 0 148 c0 82 2 151 5 153 2 3 13 5
25 5 19 0 20 -6 20 -153z m328 -2 l3 -152 -26 3 -26 3 0 148 c0 81 1 148 1
150 0 2 10 3 23 2 22 -2 22 -4 25 -154z m273 149 c10 -6 19 -19 19 -29 0 -17
-7 -18 -63 -14 -60 5 -65 4 -85 -22 -25 -32 -30 -107 -10 -150 10 -22 52 -43
78 -38 83 14 80 15 80 -7 0 -42 -110 -55 -168 -20 -86 53 -80 229 9 273 38 19
111 22 140 7z m232 -1 c38 -17 47 -51 47 -175 0 -97 -3 -116 -16 -121 -10 -4
-22 0 -28 9 -10 14 -14 14 -31 2 -28 -21 -88 -17 -119 7 -21 16 -26 29 -26 63
0 56 23 76 103 91 60 11 62 12 59 41 -5 38 -16 44 -84 44 -51 0 -58 2 -58 19
0 11 8 22 18 24 34 9 112 7 135 -4z m501 1 c35 -13 56 -49 63 -109 l6 -51
-102 0 c-92 0 -101 -2 -101 -19 0 -10 9 -30 21 -45 18 -22 28 -26 75 -26 31 0
64 5 75 10 16 9 19 7 19 -14 0 -18 -8 -27 -31 -35 -78 -27 -166 -4 -195 51
-22 41 -24 131 -5 177 25 60 105 88 175 61z m-2273 -717 c0 -73 3 -133 7 -133
4 1 29 29 56 64 36 47 57 65 78 68 15 3 28 1 28 -3 0 -4 -22 -34 -50 -67 -27
-33 -50 -64 -50 -68 0 -5 25 -40 55 -78 30 -38 55 -73 55 -77 0 -5 -11 -9 -25
-9 -19 0 -38 17 -82 75 -32 41 -61 74 -65 75 -3 0 -6 -33 -6 -72 0 -71 0 -73
-26 -76 l-26 -3 0 221 0 221 26 -3 26 -3 -1 -132z m1389 -83 c0 -205 -1 -220
-18 -220 -10 0 -23 5 -29 11 -8 8 -17 8 -31 0 -53 -28 -140 -3 -167 49 -22 43
-20 147 5 187 32 52 62 67 129 60 l59 -5 0 62 c1 33 1 64 1 69 1 4 12 7 26 7
l25 0 0 -220z m-2345 189 c50 -14 100 -64 114 -114 29 -105 0 -217 -67 -262
l-33 -22 60 -12 c59 -13 68 -20 55 -52 -4 -12 -25 -9 -122 20 -155 47 -187 64
-214 116 -32 59 -32 184 -1 243 26 49 41 62 90 80 47 16 67 17 118 3z m560
-19 c0 -20 -6 -26 -28 -28 -24 -3 -27 0 -27 28 0 28 3 31 27 28 22 -2 28 -8
28 -28z m1460 0 c0 -20 -6 -26 -28 -28 -24 -3 -27 0 -27 28 0 28 3 31 27 28
22 -2 28 -8 28 -28z m-1775 -211 l5 -124 42 -3 c77 -6 82 2 82 135 -1 116 0
117 23 117 23 0 23 0 26 -152 2 -148 2 -152 -18 -152 -11 0 -23 7 -26 15 -5
13 -9 13 -34 0 -41 -21 -103 -19 -131 4 -22 18 -24 27 -27 141 -2 66 -1 127 1
134 3 7 16 12 29 11 23 -2 23 -4 28 -126z m311 -25 l0 -149 -25 -3 -26 -3 0
149 c0 82 2 151 5 154 3 2 14 4 26 3 19 -1 20 -7 20 -151z m267 150 c14 -4 22
-14 22 -28 0 -21 -4 -22 -54 -18 -29 2 -62 -1 -74 -7 -45 -24 -54 -148 -13
-185 20 -18 68 -23 119 -12 27 7 32 5 32 -12 0 -39 -102 -56 -164 -27 -46 22
-66 62 -66 135 0 72 18 113 63 140 32 20 90 26 135 14z m780 -17 c3 -12 -4
-20 -18 -24 -17 -5 -20 -11 -15 -33 14 -65 -35 -113 -118 -114 -39 -1 -52 -5
-52 -16 0 -12 18 -16 81 -20 98 -6 114 -17 114 -76 0 -36 -5 -47 -26 -60 -59
-39 -203 -35 -236 6 -24 30 -23 47 7 75 16 14 22 26 15 30 -15 9 -12 51 5 65
13 11 13 15 0 33 -8 12 -15 40 -15 63 0 35 5 47 31 68 30 25 36 27 128 24 83
-3 96 -5 99 -21z m93 -78 c-2 -127 6 -153 49 -157 18 -2 43 -1 56 2 23 6 23
10 26 128 l3 122 25 0 25 0 3 -152 c2 -148 2 -152 -18 -152 -11 0 -23 7 -26
15 -5 13 -9 13 -34 0 -41 -21 -103 -19 -131 4 -22 18 -24 27 -27 141 -2 66 -1
127 1 134 3 7 15 12 27 11 22 -1 23 -5 21 -96z m319 -56 l0 -153 -25 0 -25 0
0 148 c0 82 2 151 5 153 2 3 13 5 25 5 19 0 20 -6 20 -153z m589 142 c29 -14
49 -51 52 -95 4 -62 7 -60 -96 -60 -93 0 -95 -1 -95 -23 0 -13 11 -34 25 -47
22 -21 31 -22 95 -17 56 5 70 3 70 -8 0 -22 -54 -45 -107 -45 -91 0 -143 57
-143 155 0 25 6 61 14 80 27 65 119 95 185 60z"/>
<path d="M560 3056 l0 -156 45 0 c57 0 109 21 128 52 38 59 28 181 -17 227
-21 20 -37 26 -91 29 l-65 4 0 -156z"/>
<path d="M963 3110 c-23 -10 -43 -39 -43 -64 0 -13 13 -16 70 -16 64 0 70 2
70 20 0 23 -42 70 -62 69 -7 0 -23 -4 -35 -9z"/>
<path d="M1252 2983 c-27 -5 -45 -37 -37 -63 8 -25 45 -35 82 -23 24 8 28 16
31 51 3 40 2 42 -25 41 -15 -1 -38 -4 -51 -6z"/>
<path d="M2553 3108 c-22 -11 -47 -61 -36 -72 4 -3 35 -6 70 -6 59 0 63 1 63
23 0 48 -52 78 -97 55z"/>
<path d="M3993 2983 c-31 -6 -46 -29 -39 -57 11 -46 100 -46 112 -1 13 54 -9
71 -73 58z"/>
<path d="M4482 3110 c-20 -8 -42 -45 -42 -71 0 -5 32 -9 70 -9 64 0 70 2 70
20 0 23 -42 70 -62 69 -7 0 -23 -4 -36 -9z"/>
<path d="M3504 2369 c-29 -32 -27 -140 4 -171 24 -25 90 -30 116 -9 17 15 22
167 5 187 -19 23 -102 18 -125 -7z"/>
<path d="M1215 2467 c-41 -41 -54 -106 -37 -186 14 -64 32 -87 83 -102 50 -15
107 11 131 61 23 44 23 136 2 190 -31 76 -121 95 -179 37z"/>
<path d="M2757 2382 c-19 -21 -21 -45 -7 -73 12 -22 78 -27 98 -7 17 17 15 64
-4 82 -21 22 -67 20 -87 -2z"/>
<path d="M2730 2145 c-25 -30 0 -50 66 -53 70 -3 106 15 88 45 -16 25 -135 31
-154 8z"/>
<path d="M3835 2375 c-14 -13 -25 -34 -25 -45 0 -19 5 -21 68 -18 65 3 67 4
64 28 -3 29 -36 60 -64 60 -10 0 -30 -11 -43 -25z"/>
</g>
</svg>
